<svg xmlns="http://www.w3.org/2000/svg" viewBox="0 0 512 512" width="16" height="16" aria-hidden="true" class="$w-[1em] $h-[1em] $fill-current $text-lg size-[18px]"><path d="M436.2 436.3h-75.9V317.4c0-28.3-.5-64.8-39.5-64.8-39.5 0-45.6 30.9-45.6 62.7v120.9h-75.9V191.9h72.8v33.4h1c7.3-12.5 17.8-22.7 30.5-29.7 12.7-6.9 27-10.3 41.4-9.8 76.9 0 91.1 50.6 91.1 116.4zM113.9 158.5c-8.7 0-17.2-2.6-24.5-7.4-7.2-4.8-12.9-11.7-16.2-19.8s-4.2-16.9-2.5-25.4 5.9-16.4 12-22.5c6.2-6.2 14-10.4 22.5-12.1s17.4-.8 25.4 2.5 14.9 9 19.8 16.2c4.8 7.2 7.4 15.7 7.4 24.5 0 5.8-1.1 11.5-3.3 16.8s-5.5 10.2-9.5 14.3c-4.1 4.1-8.9 7.3-14.3 9.5-5.3 2.3-11 3.4-16.8 3.4m37.9 277.8H75.9V191.9h75.9zM474.1 0H37.8c-9.9-.1-19.4 3.7-26.5 10.6S.1 27 0 36.9V475c.1 9.9 4.2 19.4 11.2 26.3 7.1 6.9 16.6 10.8 26.5 10.7H474c9.9.1 19.5-3.7 26.6-10.6s11.2-16.4 11.3-26.3V36.9c-.1-9.9-4.2-19.4-11.3-26.3S484-.1 474.1 0"></path></svg>