<svg xmlns="http://www.w3.org/2000/svg" viewBox="0 0 24 24" width="16" height="16" aria-hidden="true" class="$w-[1em] $h-[1em] $fill-current $text-lg hidden size-[14px] text-surface-foreground-0 dark:block"><path d="M13.965 23.016a10.94 10.94 0 0 1-7.787-3.227A10.95 10.95 0 0 1 2.953 12c0-2.942 1.146-5.708 3.225-7.79A10.94 10.94 0 0 1 13.965.985c2.405 0 4.693.77 6.617 2.224a1.172 1.172 0 0 1-.58 2.1A6.715 6.715 0 0 0 14.016 12a6.715 6.715 0 0 0 5.986 6.692c.477.052.875.39 1.003.853a1.17 1.17 0 0 1-.423 1.247 10.9 10.9 0 0 1-6.617 2.224m0-19.688c-4.78 0-8.668 3.89-8.668 8.672s3.889 8.672 8.668 8.672a8.6 8.6 0 0 0 2.857-.485 9.1 9.1 0 0 1-2.817-2.108A9.06 9.06 0 0 1 11.672 12c0-2.251.829-4.41 2.333-6.079a9.1 9.1 0 0 1 2.817-2.108 8.6 8.6 0 0 0-2.857-.485"></path></svg>