<svg xmlns="http://www.w3.org/2000/svg" viewBox="0 0 360 360" width="16" height="16" aria-hidden="true" class="$w-[1em] $h-[1em] $fill-current $text-lg size-[18px]"><path d="M353.49 95.037c-4.393-19.115-20.029-33.214-38.848-35.312-62.031-6.931-206.396-7.014-269.18 0-18.816 2.098-34.445 16.197-38.845 35.312-8.847 38.526-8.776 132.054-.068 169.923 4.393 19.118 20.021 33.21 38.841 35.315 62.031 6.931 206.396 7.014 269.18 0 18.816-2.105 34.452-16.197 38.852-35.315 8.703-37.895 8.815-131.88.068-169.923M145.003 211.903v-63.809c0-11.344 12.28-18.434 22.105-12.762l55.261 31.906c9.824 5.672 9.824 19.852 0 25.524l-55.261 31.903c-9.825 5.672-22.105-1.418-22.105-12.762"></path></svg>