<svg xmlns="http://www.w3.org/2000/svg" viewBox="0 0 12 12" width="16" height="16" aria-hidden="true" class="$w-[1em] $h-[1em] $fill-current $text-lg size-[12px] text-surface-foreground-0"><g fill-rule="evenodd" clip-path="url(#picture_svg__a)" clip-rule="evenodd"><path d="M9.773 4.09c0 1.13-.92 2.05-2.05 2.05-1.131 0-2.051-.92-2.051-2.05 0-1.131.92-2.05 2.05-2.05 1.131 0 2.051.919 2.051 2.05m-1.171 0a.88.88 0 0 0-1.758 0 .88.88 0 0 0 1.758 0"></path><path d="M1.523 0h8.954C11.317 0 12 .683 12 1.523v8.954c0 .84-.683 1.523-1.523 1.523H1.523C.683 12 0 11.317 0 10.477V1.523C0 .683.683 0 1.523 0m8.954 1.172H1.523a.35.35 0 0 0-.351.351v5.763l2.181-2.142a.586.586 0 0 1 .826.005l3.39 3.404 1.473-1.517a.586.586 0 0 1 .838-.004l.948.964V1.523a.35.35 0 0 0-.351-.351m-8.954 9.656h8.954a.35.35 0 0 0 .351-.351v-.81L9.465 8.281l-1.47 1.515a.586.586 0 0 1-.836.005l-3.4-3.414-2.587 2.54v1.549c0 .193.158.351.351.351"></path></g><defs><clipPath id="picture_svg__a"><path d="M0 0h12v12H0z"></path></clipPath></defs></svg>