<svg xmlns="http://www.w3.org/2000/svg" viewBox="-49 141 512 512" width="16" height="16" aria-hidden="true" class="$w-[1em] $h-[1em] $fill-current $text-lg size-3.5"><path d="M207 653c-68.38 0-132.668-26.629-181.02-74.98C-22.371 529.667-49 465.38-49 397s26.629-132.667 74.98-181.02C74.332 167.629 138.62 141 207 141s132.668 26.629 181.02 74.98C436.371 264.333 463 328.62 463 397s-26.629 132.667-74.98 181.02C339.668 626.371 275.38 653 207 653m0-462C93.411 191 1 283.411 1 397s92.411 206 206 206 206-92.411 206-206-92.411-206-206-206"></path><path d="M207 473c-13.807 0-25-11.193-25-25v-32c0-13.807 11.193-25 25-25 27.57 0 50-22.43 50-50s-22.43-50-50-50-50 22.43-50 50c0 13.807-11.193 25-25 25s-25-11.193-25-25c0-55.14 44.859-100 100-100s100 44.86 100 100c0 46.511-31.917 85.708-75 96.836V448c0 13.807-11.193 25-25 25m0 80c-16.542 0-30-13.458-30-30s13.458-30 30-30 30 13.458 30 30-13.458 30-30 30"></path></svg>