<svg xmlns="http://www.w3.org/2000/svg" width="16" height="16" viewBox="0 0 17 15" aria-hidden="true" class="$w-[1em] $h-[1em] $fill-current $text-lg size-[18px]"><path d="M10.661 2.177a1.77 1.77 0 1 0-.01-.766A2.86 2.86 0 0 0 8.1 4.25v.009c-1.556.065-2.977.508-4.105 1.208a2.48 2.48 0 1 0-2.568 4.208c.082 2.879 3.219 5.194 7.078 5.194s7-2.318 7.078-5.2a2.48 2.48 0 1 0-2.574-4.206c-1.138-.704-2.575-1.147-4.147-1.206V4.25c0-1.053.783-1.928 1.798-2.071zM3.896 9.003c.042-.9.639-1.59 1.333-1.59.695 0 1.226.73 1.184 1.629-.041.9-.56 1.226-1.255 1.226s-1.303-.366-1.262-1.265m7.887-1.59c.695 0 1.293.69 1.333 1.59.042.9-.567 1.265-1.262 1.265-.694 0-1.213-.326-1.255-1.226s.489-1.629 1.184-1.629m-.826 3.67c.13.014.213.15.162.27a2.832 2.832 0 0 1-5.227 0 .196.196 0 0 1 .163-.27c.763-.077 1.589-.119 2.45-.119.863 0 1.688.042 2.452.12"></path></svg>