<svg xmlns="http://www.w3.org/2000/svg" viewBox="0 0 512 512" width="16" height="16" aria-hidden="true" class="$w-[1em] $h-[1em] $fill-current $text-lg block size-[14px] text-surface-foreground-0 dark:hidden"><path d="M256 420.063c13.844 0 25.063 11.239 25.063 25.083v41.792C281.057 500.777 269.841 512 256 512c-13.839-.002-25.057-11.224-25.062-25.062v-41.792c0-13.843 11.22-25.081 25.062-25.083m-151.458-48.042c9.789-9.788 25.648-9.788 35.437 0s9.788 25.648 0 35.437l-29.541 29.563c-9.79 9.787-25.67 9.788-35.459 0-9.787-9.789-9.786-25.669 0-35.458zm267.479 0c9.789-9.789 25.648-9.788 35.437 0l29.563 29.542c9.787 9.789 9.788 25.669 0 35.458s-25.669 9.787-35.458 0l-29.542-29.563c-9.788-25.669-9.788-25.669 0-35.437M256 128c70.692 0 128 57.308 128 128s-57.308 128-128 128-128-57.308-128-128 57.308-128 128-128m0 50.125c-43.005 0-77.875 34.87-77.875 77.875s34.87 77.875 77.875 77.875 77.875-34.87 77.875-77.875-34.87-77.875-77.875-77.875M66.854 230.938c13.844 0 25.063 11.218 25.063 25.062-.001 13.843-11.219 25.063-25.063 25.063H25.063C11.224 281.057.001 269.84 0 256c0-13.841 11.223-25.057 25.063-25.062zm420.084 0C500.78 230.94 512 242.157 512 256c-.001 13.842-11.22 25.06-25.062 25.063h-41.792c-13.844 0-25.062-11.22-25.063-25.063 0-13.844 11.219-25.062 25.063-25.062zM74.979 74.979c9.789-9.789 25.669-9.788 35.459 0l29.541 29.563c9.787 9.789 9.789 25.649 0 35.437s-25.648 9.787-35.437 0l-29.563-29.541c-9.788-9.789-9.788-25.669 0-35.459m326.584 0c9.789-9.79 25.669-9.79 35.458 0 9.787 9.789 9.788 25.669 0 35.459l-29.563 29.541c-9.789 9.784-25.649 9.786-35.437 0-9.789-9.789-9.789-25.669 0-35.458zM256 0c13.843 0 25.06 11.221 25.063 25.063v41.791c0 13.844-11.219 25.063-25.063 25.063-13.842-.002-25.062-11.22-25.062-25.063V25.063C230.94 11.222 242.159.002 256 0"></path></svg>