<svg xmlns="http://www.w3.org/2000/svg" width="16" height="16" viewBox="0 0 16 16" aria-hidden="true" class="$w-[1em] $h-[1em] $fill-current $text-lg size-3.5"><path d="m14.36 5.19 1.19-.53a.733.733 0 0 0 0-1.34l-1.19-.53a.7.7 0 0 1-.37-.37l-.53-1.19a.733.733 0 0 0-1.34 0l-.53 1.19c-.07.17-.21.3-.37.37l-1.19.53a.733.733 0 0 0 0 1.34l1.19.53c.17.07.3.21.37.37l.53 1.19c.26.58 1.08.58 1.34 0l.53-1.19c.07-.17.21-.3.37-.37"></path><path d="M14.37 11.27c0 .27-.22.49-.49.49H7.99c-.15 0-.3.04-.43.12l-2.69 1.67v-.98c0-.45-.36-.81-.81-.81H2.11a.49.49 0 0 1-.49-.49V2.91c0-.27.22-.49.49-.49h5.48c.45 0 .81-.36.81-.81S8.04.8 7.59.8H2.11C.95.8 0 1.75 0 2.91v8.36c0 1.17.95 2.11 2.11 2.11h1.14v1.63a.81.81 0 0 0 .82.81c.15 0 .3-.04.43-.12l3.74-2.32h5.65c1.17 0 2.11-.95 2.11-2.11V9.12c0-.45-.36-.81-.81-.81s-.81.36-.81.81v2.15z"></path></svg>