<svg xmlns="http://www.w3.org/2000/svg" width="16" height="16" aria-hidden="true" viewBox="0 0 24 24" class="$w-[1em] $h-[1em] $fill-current $text-lg size-[14px]"><path d="M5.906 2.625a1.408 1.408 0 0 0 2.813 0 1.408 1.408 0 0 0-2.813 0m4.688 0a1.407 1.407 0 1 0 2.81-.001 1.407 1.407 0 0 0-2.81.001m4.687 0a1.408 1.408 0 0 0 2.813 0 1.408 1.408 0 0 0-2.813 0M1.219 7.313c0 .775.63 1.406 1.406 1.406a1.407 1.407 0 0 0 0-2.813c-.776 0-1.406.631-1.406 1.407m18.75 0c0 .775.63 1.406 1.406 1.406a1.407 1.407 0 0 0 0-2.813c-.776 0-1.406.631-1.406 1.407m-14.063 0a1.408 1.408 0 0 0 2.813 0c0-.776-.631-1.407-1.406-1.407-.776 0-1.407.631-1.407 1.407m4.688 0c0 .775.63 1.406 1.406 1.406a1.407 1.407 0 0 0 0-2.813c-.776 0-1.406.631-1.406 1.407m4.687 0c0 .775.631 1.406 1.406 1.406.776 0 1.407-.631 1.407-1.406a1.408 1.408 0 0 0-2.813 0M1.219 12a1.407 1.407 0 1 0 2.81-.001A1.407 1.407 0 0 0 1.22 12m18.75 0a1.407 1.407 0 1 0 2.81-.001 1.407 1.407 0 0 0-2.81.001M5.906 12a1.408 1.408 0 0 0 2.813 0 1.408 1.408 0 0 0-2.813 0m4.688 0a1.407 1.407 0 1 0 2.81-.001 1.407 1.407 0 0 0-2.81.001m4.687 0a1.408 1.408 0 0 0 2.813 0 1.408 1.408 0 0 0-2.813 0M1.219 16.688c0 .775.63 1.406 1.406 1.406a1.408 1.408 0 0 0 0-2.813c-.776 0-1.406.631-1.406 1.406m18.75.001c0 .775.63 1.406 1.406 1.406a1.408 1.408 0 0 0 0-2.813c-.776 0-1.406.631-1.406 1.406m-14.063.001a1.408 1.408 0 0 0 2.813 0c0-.776-.631-1.407-1.406-1.407-.776 0-1.407.631-1.407 1.406m4.688.001c0 .775.63 1.406 1.406 1.406a1.408 1.408 0 0 0 0-2.813c-.776 0-1.406.631-1.406 1.406m4.687.001c0 .775.631 1.406 1.406 1.406.776 0 1.407-.631 1.407-1.407 0-.775-.631-1.406-1.407-1.406-.775 0-1.406.631-1.406 1.406m-9.375 4.688a1.408 1.408 0 0 0 2.813 0 1.408 1.408 0 0 0-2.813 0m4.688 0a1.407 1.407 0 1 0 2.81-.001 1.407 1.407 0 0 0-2.81.001m4.687 0a1.408 1.408 0 0 0 2.813 0 1.408 1.408 0 0 0-2.813 0"></path></svg>