<svg xmlns="http://www.w3.org/2000/svg" viewBox="-49 141 512 512" width="16" height="16" aria-hidden="true" class="$w-[1em] $h-[1em] $fill-current $text-lg size-[14px]"><path d="M438 403c-13.808 0-25 11.193-25 25v134c0 19.299-15.701 35-35 35H36c-19.299 0-35-15.701-35-35V428c0-13.807-11.193-25-25-25s-25 11.193-25 25v134c0 46.869 38.131 85 85 85h342c46.869 0 85-38.131 85-85V428c0-13.807-11.192-25-25-25"></path><path d="M189.322 530.678a25.004 25.004 0 0 0 35.356 0l84.853-84.853c9.763-9.763 9.763-25.592 0-35.355s-25.592-9.763-35.355 0L232 452.645V172c0-13.807-11.193-25-25-25s-25 11.193-25 25v280.645l-42.175-42.175c-9.764-9.763-25.592-9.763-35.355 0s-9.763 25.592 0 35.355z"></path></svg>