<svg xmlns="http://www.w3.org/2000/svg" width="16" height="16" viewBox="0 0 14 12" aria-hidden="true" class="$w-[1em] $h-[1em] $fill-current $text-lg size-[18px]"><path d="M11.86 1.584c-.92-.421-1.892-.72-2.889-.889q-.204.366-.37.752a10.8 10.8 0 0 0-3.205 0 8 8 0 0 0-.37-.752c-.998.17-1.97.47-2.89.891C.306 4.291-.189 6.928.058 9.528c1.07.79 2.27 1.392 3.543 1.778q.43-.58.759-1.223a7.5 7.5 0 0 1-1.195-.57q.15-.11.293-.221a8.32 8.32 0 0 0 7.082 0q.144.118.293.22a7.6 7.6 0 0 1-1.197.572q.328.643.759 1.222a11.6 11.6 0 0 0 3.544-1.777c.291-3.015-.496-5.628-2.08-7.945M4.673 7.929c-.69 0-1.26-.627-1.26-1.398s.55-1.402 1.258-1.402 1.274.632 1.262 1.402c-.012.771-.556 1.398-1.26 1.398m4.652 0c-.692 0-1.26-.627-1.26-1.398s.55-1.402 1.26-1.402c.709 0 1.27.632 1.258 1.402-.012.771-.555 1.398-1.258 1.398"></path></svg>