<svg xmlns="http://www.w3.org/2000/svg" width="14" height="10" viewBox="0 0 14 10" fill="none">
            <path d="M14 5C14 5.20938 13.9115 5.41019 13.754 5.55824C13.5964 5.7063 13.3828 5.78947 13.16 5.78947H0.84C0.617218 5.78947 0.403561 5.7063 0.24603 5.55824C0.0884998 5.41019 0 5.20938 0 5C0 4.79062 0.0884998 4.58981 0.24603 4.44176C0.403561 4.2937 0.617218 4.21053 0.84 4.21053H13.16C13.3828 4.21053 13.5964 4.2937 13.754 4.44176C13.9115 4.58981 14 4.79062 14 5ZM0.84 1.57895H13.16C13.3828 1.57895 13.5964 1.49577 13.754 1.34772C13.9115 1.19966 14 0.998855 14 0.789474C14 0.580092 13.9115 0.379286 13.754 0.231231C13.5964 0.0831764 13.3828 0 13.16 0H0.84C0.617218 0 0.403561 0.0831764 0.24603 0.231231C0.0884998 0.379286 0 0.580092 0 0.789474C0 0.998855 0.0884998 1.19966 0.24603 1.34772C0.403561 1.49577 0.617218 1.57895 0.84 1.57895ZM13.16 8.42105H0.84C0.617218 8.42105 0.403561 8.50423 0.24603 8.65228C0.0884998 8.80034 0 9.00115 0 9.21053C0 9.41991 0.0884998 9.62071 0.24603 9.76877C0.403561 9.91682 0.617218 10 0.84 10H13.16C13.3828 10 13.5964 9.91682 13.754 9.76877C13.9115 9.62071 14 9.41991 14 9.21053C14 9.00115 13.9115 8.80034 13.754 8.65228C13.5964 8.50423 13.3828 8.42105 13.16 8.42105Z" fill="#2A373F"></path>
        </svg>