<svg xmlns="http://www.w3.org/2000/svg" viewBox="0 0 14 14" width="16" height="16" aria-hidden="true" class="$w-[1em] $h-[1em] $fill-current $text-lg flex size-[14px] w-8 items-center justify-center"><path d="M11.452 0h1.698c.47 0 .85.38.85.85v1.699c0 .469-.38.85-.85.85h-1.699a.85.85 0 0 1-.849-.85v-1.7c0-.469.38-.849.85-.849M13.15 5.301h-1.699a.85.85 0 0 0-.849.85V7.85c0 .469.38.849.85.849h1.698c.47 0 .85-.38.85-.85V6.15a.85.85 0 0 0-.85-.849M.85 10.602h1.699c.469 0 .85.38.85.85v1.698c0 .47-.381.85-.85.85h-1.7A.85.85 0 0 1 0 13.15v-1.699c0-.469.38-.85.85-.85M7.85 10.602h-1.7a.85.85 0 0 0-.85.85v1.698c.001.47.381.85.85.85h1.7c.469 0 .849-.38.849-.85v-1.699a.85.85 0 0 0-.85-.85M13.15 10.602h-1.699a.85.85 0 0 0-.849.85v1.698c0 .47.38.85.85.85h1.698c.47 0 .85-.38.85-.85v-1.699a.85.85 0 0 0-.85-.85M6.15 5.301h1.7c.469 0 .849.38.849.85V7.85c0 .469-.38.849-.85.849H6.15a.85.85 0 0 1-.85-.85V6.15c.001-.469.381-.849.85-.849M2.549 5.301h-1.7a.85.85 0 0 0-.849.85V7.85c0 .469.38.849.85.849h1.699c.469 0 .85-.38.85-.85V6.15a.85.85 0 0 0-.85-.849M7.85 0h-1.7a.85.85 0 0 0-.85.85v1.699c.001.469.381.85.85.85h1.7c.469 0 .849-.381.849-.85v-1.7A.85.85 0 0 0 7.849 0M.85 0h1.699c.469 0 .85.38.85.85v1.699c0 .469-.381.85-.85.85h-1.7A.85.85 0 0 1 0 2.548v-1.7C0 .38.38 0 .85 0"></path></svg>