<svg xmlns="http://www.w3.org/2000/svg" width="16" height="16" viewBox="0 0 14 14" aria-hidden="true" class="$w-[1em] $h-[1em] $fill-current $text-lg size-[14px]"><path fill-rule="evenodd" d="M14 10.856c0-1.53-.623-2.316-1.174-3.01-.49-.617-.877-1.105-.877-2.158v-.041a4.94 4.94 0 0 0-1.45-3.51A4.9 4.9 0 0 0 7.685.731V.684a.684.684 0 1 0-1.368 0v.048c-2.406.337-4.265 2.431-4.265 4.956 0 1.053-.387 1.541-.877 2.159C.624 8.54 0 9.325 0 10.855v.036a1.78 1.78 0 0 0 1.777 1.742h3.856C5.633 13.387 6.246 14 7 14s1.367-.613 1.367-1.367h3.856A1.78 1.78 0 0 0 14 10.856m-1.777.41H1.777a.41.41 0 0 1-.41-.41c0-1.054.387-1.542.877-2.16.55-.693 1.174-1.478 1.174-3.008 0-2.005 1.606-3.636 3.58-3.637H7c.956 0 1.855.373 2.532 1.052a3.58 3.58 0 0 1 1.05 2.585c0 1.53.624 2.315 1.174 3.008.49.618.877 1.106.877 2.16a.41.41 0 0 1-.41.41" clip-rule="evenodd"></path></svg>