<svg xmlns="http://www.w3.org/2000/svg" viewBox="0 0 512 512" width="16" height="16" aria-hidden="true" class="$w-[1em] $h-[1em] $fill-current $text-lg size-[14px]"><path d="M437 75C388.7 26.6 324.4 0 256 0c-46.2 0-91.6 12.5-131.1 36.1C99.9 51 77.6 70.2 59 92.5V33C59 19.2 47.8 8 34 8S9 19.2 9 33v117c0 13.8 11.2 25 25 25h117c13.8 0 25-11.2 25-25s-11.2-25-25-25H97c38.8-47 97-75 159-75 113.6 0 206 92.4 206 206s-92.4 206-206 206S50 369.6 50 256c0-13.8-11.2-25-25-25S0 242.2 0 256c0 68.4 26.6 132.7 75 181 48.4 48.4 112.6 75 181 75s132.7-26.6 181-75c48.4-48.4 75-112.6 75-181s-26.6-132.7-75-181"></path><path d="M246 145c-13.8 0-25 11.2-25 25v102.5c0 9.6 5.5 18.3 14.1 22.5l81.2 39.2c3.5 1.7 7.2 2.5 10.8 2.5 9.3 0 18.2-5.2 22.5-14.1 6-12.4.8-27.4-11.7-33.4l-67-32.3V170c.1-13.8-11.1-25-24.9-25"></path></svg>