<svg xmlns="http://www.w3.org/2000/svg" viewBox="-49 141 512 512" width="16" height="16" aria-hidden="true" class="$w-[1em] $h-[1em] $fill-current $text-lg size-[14px]"><path d="M388.02 215.98C339.667 167.629 275.38 141 207 141S74.333 167.629 25.98 215.98C-22.371 264.332-49 328.62-49 397s26.629 132.668 74.98 181.02C74.333 626.371 138.62 653 207 653s132.667-26.629 181.02-74.98C436.371 529.668 463 465.38 463 397s-26.629-132.668-74.98-181.02M206.999 594.556c-28.257-26.276-50.21-57.813-64.859-92.556h129.72c-14.65 34.744-36.603 66.281-64.861 92.556M126.613 452C122.92 434.105 121 415.699 121 397s1.921-37.105 5.613-55h160.774c3.693 17.895 5.613 36.301 5.613 55s-1.921 37.105-5.613 55zM1 397c0-19.042 2.609-37.484 7.467-55h67.236C72.597 359.985 71 378.371 71 397s1.597 37.015 4.703 55H8.467A205.5 205.5 0 0 1 1 397m206-197.557c28.257 26.276 50.211 57.813 64.859 92.557H142.141c14.648-34.743 36.602-66.281 64.859-92.557M338.297 342h67.236c4.858 17.516 7.467 35.958 7.467 55s-2.609 37.484-7.467 55h-67.235c3.106-17.985 4.703-36.371 4.703-55s-1.598-37.015-4.704-55m45.866-50h-58.741a317.4 317.4 0 0 0-47.355-88.362C322.719 220.102 360.14 251.62 384.163 292m-248.229-88.362A317.3 317.3 0 0 0 88.579 292H29.837c24.023-40.38 61.444-71.898 106.097-88.362M29.837 502h58.742a317.3 317.3 0 0 0 47.355 88.362C91.281 573.898 53.86 542.38 29.837 502m248.23 88.362A317.3 317.3 0 0 0 325.422 502h58.741c-24.023 40.379-61.443 71.898-106.096 88.362"></path></svg>