<svg xmlns="http://www.w3.org/2000/svg" viewBox="0 0 14 14" width="16" height="16" aria-hidden="true" class="$w-[1em] $h-[1em] $fill-current $text-sm"><path d="M9.266 6.262h2.625c.829 0 1.504-.675 1.504-1.504V2.133c0-.83-.675-1.504-1.504-1.504H9.266c-.83 0-1.504.674-1.504 1.504v2.625c0 .83.675 1.504 1.504 1.504m-.137-4.13c0-.075.061-.136.137-.136h2.625c.075 0 .136.061.136.137v2.625a.137.137 0 0 1-.136.137H9.266a.137.137 0 0 1-.137-.137zM4.727 7.739H2.102c-.83 0-1.504.675-1.504 1.504v2.625c0 .83.674 1.504 1.504 1.504h2.625c.829 0 1.503-.675 1.503-1.504V9.242c0-.83-.674-1.504-1.503-1.504m.136 4.13a.137.137 0 0 1-.136.136H2.102a.137.137 0 0 1-.137-.137V9.242c0-.075.061-.137.137-.137h2.625c.075 0 .136.062.136.137zM3.47.491A2.957 2.957 0 0 0 .516 3.445a2.957 2.957 0 0 0 2.953 2.953 2.957 2.957 0 0 0 2.953-2.953A2.957 2.957 0 0 0 3.469.492m0 4.54a1.59 1.59 0 0 1-1.586-1.587c0-.874.711-1.586 1.586-1.586.874 0 1.586.712 1.586 1.586s-.712 1.586-1.586 1.586m10.098 6.131-1.84-2.961a1.38 1.38 0 0 0-1.177-.655c-.482 0-.921.245-1.176.655l-1.84 2.961c-.266.43-.28.971-.033 1.413.244.44.708.713 1.21.713h3.679c.502 0 .965-.273 1.21-.713a1.4 1.4 0 0 0-.034-1.413m-1.17.758H8.705l-.007-.036 1.84-2.962h.029l1.84 2.962z"></path></svg>