<svg xmlns="http://www.w3.org/2000/svg" viewBox="0 0 24 24" width="16" height="16" aria-hidden="true" class="$w-[1em] $h-[1em] $fill-current $text-sm"><path d="M20.027 3.605h-.047V3.51a3.52 3.52 0 0 0-3.518-3.518H3.518A3.52 3.52 0 0 0 0 3.511v2.533A3.52 3.52 0 0 0 3.518 9.56h12.944a3.52 3.52 0 0 0 3.518-3.517V5.95h.047c.905 0 1.641.736 1.641 1.641v2.205c0 .905-.736 1.641-1.641 1.641h-8.201c-.817 0-1.584.319-2.16.897-.373.375-.637.83-.775 1.327a3.054 3.054 0 0 0-2.419 2.982v4.315a3.05 3.05 0 0 0 3.049 3.049h.938a3.05 3.05 0 0 0 3.049-3.049v-4.315a3.05 3.05 0 0 0-1.904-2.825.7.7 0 0 1 .222-.036h8.2a3.99 3.99 0 0 0 3.987-3.986V7.59a3.99 3.99 0 0 0-3.986-3.986m-2.392 2.439c0 .646-.526 1.172-1.173 1.172H3.518a1.174 1.174 0 0 1-1.173-1.172V3.51c0-.647.526-1.173 1.173-1.173h12.944c.647 0 1.173.526 1.173 1.173zm-6.473 14.914a.704.704 0 0 1-.703.704H9.52a.704.704 0 0 1-.704-.704v-4.315c0-.388.316-.703.704-.703h.938c.388 0 .703.315.703.703z"></path></svg>