<svg xmlns="http://www.w3.org/2000/svg" viewBox="0 0 12 14" width="16" height="16" aria-hidden="true" class="$w-[1em] $h-[1em] $fill-current $text-lg size-[12px] text-surface-foreground-0"><path d="M3.333.333C3.702.333 4 .632 4 1v12a.667.667 0 1 1-1.333 0V1c0-.368.298-.667.666-.667m8 1.334c.368 0 .667.298.667.666v9.334a.667.667 0 0 1-1.333 0V2.333c0-.368.298-.666.666-.666M6 2.333c.368 0 .667.299.667.667v8a.667.667 0 1 1-1.334 0V3c0-.368.299-.667.667-.667m2.667 1.334c.368 0 .666.298.666.666v5.334a.667.667 0 1 1-1.333 0V4.333c0-.368.298-.666.667-.666M.667 5c.368 0 .666.299.666.667v2.666a.667.667 0 1 1-1.333 0V5.667C0 5.299.298 5 .667 5"></path></svg>