<svg xmlns="http://www.w3.org/2000/svg" viewBox="-49 141 512 512" width="16" height="16" aria-hidden="true" class="$w-[1em] $h-[1em] $fill-current $text-lg size-[14px]"><path d="M455.678 404.322 352 300.644V216c0-13.807-11.193-25-25-25s-25 11.193-25 25v34.645l-77.322-77.322c-9.764-9.763-25.592-9.763-35.355 0l-231 231A25 25 0 0 0-24 447H1v126c0 30.327 24.673 55 55 55h302c30.327 0 55-24.673 55-55V447h25a25 25 0 0 0 17.678-42.678M363 573c0 2.757-2.243 5-5 5h-96v-95c0-13.807-11.193-25-25-25h-60c-13.807 0-25 11.193-25 25v95H56c-2.757 0-5-2.243-5-5V382.355l156-156 156 156z"></path></svg>