<svg xmlns="http://www.w3.org/2000/svg" width="16" height="16" viewBox="0 0 14 14" aria-hidden="true" class="$w-[1em] $h-[1em] $fill-current $text-base text-surface-foreground-0"><path d="M10.445 2.324h-.15l-.6-.871A1.78 1.78 0 0 0 8.23.682H5.77c-.585 0-1.132.288-1.464.77l-.6.871h-.151A2.874 2.874 0 0 0 .684 5.195v5.25a2.874 2.874 0 0 0 2.87 2.871h6.891a2.874 2.874 0 0 0 2.871-2.87v-5.25a2.874 2.874 0 0 0-2.87-2.872m1.504 8.121c0 .83-.674 1.504-1.504 1.504h-6.89c-.83 0-1.504-.674-1.504-1.504v-5.25c0-.829.674-1.504 1.504-1.504h.51c.224 0 .435-.11.562-.295l.805-1.168a.41.41 0 0 1 .338-.177h2.46a.41.41 0 0 1 .338.177l.805 1.168a.68.68 0 0 0 .563.296h.51c.829 0 1.503.674 1.503 1.504zM7.027 4.457a3.15 3.15 0 0 0-3.144 3.145 3.15 3.15 0 0 0 3.144 3.144 3.15 3.15 0 0 0 3.145-3.144 3.15 3.15 0 0 0-3.145-3.145m0 4.922A1.78 1.78 0 0 1 5.25 7.602c0-.98.797-1.778 1.777-1.778s1.778.798 1.778 1.778a1.78 1.78 0 0 1-1.778 1.777"></path></svg>