<svg xmlns="http://www.w3.org/2000/svg" viewBox="0 0 512 512" width="16" height="16" aria-hidden="true" class="$w-[1em] $h-[1em] $fill-current $text-lg size-[18px]"><path d="M256.2 10.6C120.8 10.6 11 120.4 11 255.8c0 103.9 64.6 192.7 155.8 228.5-2.2-19.4-4-49.2.8-70.4C172 394.7 196.3 292 196.3 292s-7.3-14.7-7.3-36.3c0-34.1 19.8-59.5 44.4-59.5 21 0 31.1 15.7 31.1 34.5 0 21-13.3 52.5-20.4 81.7-5.9 24.4 12.3 44.4 36.3 44.4 43.6 0 77.1-46 77.1-112.2 0-58.7-42.2-99.7-102.5-99.7-69.8 0-110.8 52.3-110.8 106.4 0 21 8.1 43.6 18.2 55.9 2 2.4 2.2 4.6 1.6 7.1-1.8 7.7-6.1 24.4-6.9 27.9-1 4.4-3.6 5.4-8.3 3.2-30.6-14.5-49.8-59.1-49.8-95.3 0-77.3 56.1-148.3 162.1-148.3 85 0 151.2 60.5 151.2 141.7 0 84.6-53.3 152.6-127.1 152.6-24.8 0-48.2-12.9-56.1-28.3 0 0-12.3 46.8-15.3 58.3-5.4 21.4-20.4 48-30.5 64.4 23 7.1 47.2 10.9 72.7 10.9 135.4 0 245.2-109.8 245.2-245.2.2-135.8-109.6-245.6-245-245.6"></path></svg>