<svg xmlns="http://www.w3.org/2000/svg" width="16" height="16" viewBox="0 0 16 16" aria-hidden="true" class="$w-[1em] $h-[1em] $fill-current $text-sm"><path d="M14.384 7.251h-4.079a1.56 1.56 0 0 1-1.557-1.557V1.616c0-.859.699-1.557 1.557-1.557h4.079c.858 0 1.557.698 1.557 1.557v4.078c0 .859-.699 1.557-1.557 1.557m-4.079-5.635v4.078h4.079V1.616zM3.767 16A3.74 3.74 0 0 1 .03 12.264a3.74 3.74 0 0 1 3.736-3.736 3.74 3.74 0 0 1 3.736 3.736A3.74 3.74 0 0 1 3.767 16m0-5.916c-1.202 0-2.18.978-2.18 2.18s.978 2.18 2.18 2.18 2.18-.979 2.18-2.18-.978-2.18-2.18-2.18M5.402 7.24a.711.711 0 0 0 1.032-.75L6.13 4.725l1.284-1.251A.71.71 0 0 0 7.02 2.26l-1.775-.257L4.453.396a.712.712 0 0 0-1.276 0l-.793 1.607L.61 2.26a.71.71 0 0 0-.394 1.213l1.283 1.25-.303 1.767a.711.711 0 0 0 1.033.75l1.586-.835zm9.972 3.03a1.936 1.936 0 0 0-2.738 0l-.512.513-.512-.512a1.936 1.936 0 0 0-2.738 2.738l.512.512 2.262 2.262c.263.263.69.263.952 0l2.262-2.262.512-.512a1.936 1.936 0 0 0 0-2.738"></path></svg>