<svg xmlns="http://www.w3.org/2000/svg" viewBox="0 0 18 18" width="16" height="16" aria-hidden="true" class="$w-[1em] $h-[1em] $fill-current $text-lg size-[14px] text-surface-foreground-0"><path d="M14.25 1.5H3.75A3.754 3.754 0 0 0 0 5.25v7.5a3.754 3.754 0 0 0 3.75 3.75h10.5A3.754 3.754 0 0 0 18 12.75v-7.5a3.754 3.754 0 0 0-3.75-3.75M1.5 12.75v-7.5C1.5 4.01 2.51 3 3.75 3h3v12h-3c-1.24 0-2.25-1.01-2.25-2.25m15 0c0 1.24-1.01 2.25-2.25 2.25h-6V3h6c1.24 0 2.25 1.01 2.25 2.25zM5.25 8.25A.75.75 0 0 1 4.5 9h-.75a.75.75 0 1 1 0-1.5h.75a.75.75 0 0 1 .75.75m0 3a.75.75 0 0 1-.75.75h-.75a.75.75 0 1 1 0-1.5h.75a.75.75 0 0 1 .75.75M3 5.25a.75.75 0 0 1 .75-.75h.75a.75.75 0 1 1 0 1.5h-.75A.75.75 0 0 1 3 5.25"></path></svg>