<svg xmlns="http://www.w3.org/2000/svg" width="16" height="16" viewBox="0 0 14 14" aria-hidden="true" class="$w-[1em] $h-[1em] $fill-current $text-lg size-3"><path d="m5.181 9.65 2.893 2.896.418-.418a4.72 4.72 0 0 0 1.225-4.504l-.145-.591L10.803 5.8l.128.128a1.82 1.82 0 0 0 2.326.237 1.774 1.774 0 0 0 .224-2.699L10.573.55A1.82 1.82 0 0 0 8.248.314a1.773 1.773 0 0 0-.225 2.698l.173.173L6.962 4.42l-.581-.143A4.71 4.71 0 0 0 1.872 5.5l-.417.418 2.893 2.894L0 13.164.835 14zm.909-4.225 1.24.303 2.539-2.541-1.012-1.01a.59.59 0 0 1 .079-.903.64.64 0 0 1 .8.113l2.908 2.91a.592.592 0 0 1-.08.904.64.64 0 0 1-.8-.113l-.963-.964-2.539 2.542.306 1.248a3.54 3.54 0 0 1-.532 2.924L3.161 5.957a3.53 3.53 0 0 1 2.929-.532"></path></svg>