<svg xmlns="http://www.w3.org/2000/svg" width="16" height="16" viewBox="0 0 14 14" aria-hidden="true" class="$w-[1em] $h-[1em] $fill-current $text-lg size-[14px]"><g clip-path="url(#collection_svg__a)"><path d="M9.27 6.262h2.625c.829 0 1.503-.675 1.503-1.504V2.133c0-.83-.674-1.504-1.503-1.504H9.27c-.83 0-1.504.674-1.504 1.504v2.625c0 .83.674 1.504 1.504 1.504m-.137-4.13c0-.075.061-.136.137-.136h2.625c.075 0 .136.061.136.137v2.625a.137.137 0 0 1-.136.137H9.27a.137.137 0 0 1-.137-.137zM4.73 7.739H2.105c-.829 0-1.503.675-1.503 1.504v2.625c0 .83.674 1.504 1.503 1.504H4.73c.83 0 1.504-.675 1.504-1.504V9.242c0-.83-.674-1.504-1.504-1.504m.137 4.13a.137.137 0 0 1-.137.136H2.105a.137.137 0 0 1-.136-.137V9.242c0-.075.061-.137.136-.137H4.73c.076 0 .137.062.137.137zM3.473.491A2.957 2.957 0 0 0 .52 3.445a2.957 2.957 0 0 0 2.953 2.953 2.957 2.957 0 0 0 2.953-2.953A2.957 2.957 0 0 0 3.473.492m0 4.54a1.59 1.59 0 0 1-1.586-1.587c0-.874.711-1.586 1.586-1.586.874 0 1.586.712 1.586 1.586s-.712 1.586-1.586 1.586m10.097 6.131-1.839-2.961a1.38 1.38 0 0 0-1.177-.655c-.482 0-.921.245-1.176.655l-1.84 2.961c-.266.43-.28.971-.034 1.413.245.44.709.713 1.211.713h3.679c.502 0 .965-.273 1.21-.713a1.4 1.4 0 0 0-.034-1.413m-1.168.758H8.708l-.007-.036 1.84-2.962h.029l1.84 2.962z"></path></g><defs><clipPath id="collection_svg__a"><path d="M0 0h14v14H0z"></path></clipPath></defs></svg>