<svg xmlns="http://www.w3.org/2000/svg" viewBox="0 0 512 512" width="16" height="16" aria-hidden="true" class="$w-[1em] $h-[1em] $fill-current $text-sm"><path d="M492.9 11.3c-18.4-14.8-43.4-15.1-62.3-.9-40.3 30.6-87.2 74.5-132 123.8-39.8 43.7-74.1 87.3-97.9 124.2-1.2 0-2.3-.1-3.5-.1-36.4 0-67.3 14.7-92 43.7-19.4 22.7-31.5 50.5-40.4 70.7-3.8 8.6-7.3 16.7-10.2 21.5-18.7 31.2-34.6 38-36.2 38.7-9.5 2.6-16.6 10.6-18.1 20.4a25.1 25.1 0 0 0 12.2 25.4C14.9 480 71.4 512 167 512h20c33.4 0 67.5-13.1 93.6-36 28-24.6 43.4-56.8 43.4-90.8 0-8.5-.9-16.9-2.5-25C390.5 277 469 155.4 507.3 71.9c9.8-21.5 4-45.8-14.4-60.6M247.6 438.4c-17.1 15-39.2 23.6-60.6 23.6h-20c-38.3 0-69.2-5.9-91.2-12.1 7-7.9 14.3-17.7 21.7-30 4.5-7.4 8.4-16.5 13.1-27.1 20.3-46.2 40.8-84.5 86.7-84.5 42.4 0 76.8 34.5 76.8 76.8-.1 19.4-9.5 38.3-26.5 53.3m4.8-167.4c9.3-13.5 19.7-27.6 31.1-42 20.3 5 37.7 18.2 48.2 36.3-11.1 15.2-22.1 29.9-33 43.7-12.2-16-28.1-29.1-46.3-38M461.8 51c-22 48-59.2 111.1-99.8 171-12.2-14.4-27.4-26-44.6-33.8C363 135.9 415.9 84.4 460.9 50.3c.2-.1.3-.2.4-.3.3.1.6.4.7.6-.1.1-.1.3-.2.4"></path></svg>