<svg xmlns="http://www.w3.org/2000/svg" width="16" height="16" viewBox="0 0 14 14" aria-hidden="true" class="$w-[1em] $h-[1em] $fill-current $text-lg size-3.5"><g fill="currentColor" clip-path="url(#image-generator_svg__a)"><path d="M13.043 5.62a.684.684 0 0 0-.684.683v5.127q0 .092-.038.172l-2.075-2.075a.68.68 0 0 0-.484-.2.68.68 0 0 0-.484.2l-.91.907L5.16 7.227a.683.683 0 0 0-.968 0L1.64 9.778v-6.06a.41.41 0 0 1 .41-.41h5.77a.684.684 0 0 0 0-1.367H2.05A1.78 1.78 0 0 0 .273 3.72v7.744a1.78 1.78 0 0 0 1.778 1.744h9.898a1.78 1.78 0 0 0 1.778-1.777V6.303a.684.684 0 0 0-.684-.684"></path><path d="m13.779 2.382-1.004-.383a.34.34 0 0 1-.2-.2L12.193.796a.344.344 0 0 0-.643 0l-.383 1.003c-.035.093-.006.164-.2.2l-1.003.383a.344.344 0 0 0 0 .642l1.004.383a.34.34 0 0 1 .2.2l.382 1.003c.112.295.53.295.643 0l.382-1.003a.34.34 0 0 1 .2-.2l1.003-.383a.344.344 0 0 0 0-.642M8.034 6.453l.585.224a.33.33 0 0 1 .191.192l.224.585c.11.284.514.284.621 0l.224-.585a.33.33 0 0 1 .192-.192l.585-.224c.284-.11.284-.514 0-.62l-.585-.225a.33.33 0 0 1-.192-.191l-.224-.585c-.11-.285-.514-.285-.62 0l-.225.585a.33.33 0 0 1-.191.191l-.585.224a.331.331 0 0 0 0 .621"></path></g><defs><clipPath id="image-generator_svg__a"><path d="M0 0h14v14H0z"></path></clipPath></defs></svg>