<svg xmlns="http://www.w3.org/2000/svg" viewBox="0 0 24 24" width="16" height="16" aria-hidden="true" class="$w-[1em] $h-[1em] $fill-current $text-lg size-[14px]"><path d="M19.802 3.414 18.7.914c-.538-1.219-2.269-1.219-2.806 0l-1.102 2.5a1.53 1.53 0 0 1-.784.784l-2.5 1.102c-1.22.538-1.22 2.269 0 2.806l2.5 1.102c.35.154.63.434.784.784l1.102 2.5c.537 1.22 2.268 1.22 2.806 0l1.102-2.5c.154-.35.434-.63.784-.784l2.5-1.102c1.219-.537 1.219-2.268 0-2.806l-2.5-1.102a1.53 1.53 0 0 1-.784-.784M5.442 9.52l.74 1.678c.103.235.291.423.526.527l1.677.74c.82.36.82 1.522 0 1.883l-1.677.74a1.03 1.03 0 0 0-.527.526l-.74 1.678c-.36.819-1.522.819-1.883 0l-.74-1.678a1.03 1.03 0 0 0-.526-.526l-1.678-.74c-.819-.36-.819-1.523 0-1.884l1.678-.74c.235-.103.423-.291.526-.526l.74-1.678c.36-.818 1.523-.818 1.884 0m8.925 7.574.608 1.382c.086.193.24.348.434.433l1.382.61a.848.848 0 0 1 0 1.55l-1.382.61a.85.85 0 0 0-.434.433l-.608 1.381a.848.848 0 0 1-1.551 0l-.61-1.381a.85.85 0 0 0-.433-.434l-1.381-.609a.848.848 0 0 1 0-1.55l1.381-.61a.85.85 0 0 0 .434-.433l.609-1.382a.848.848 0 0 1 1.55 0z"></path></svg>