<svg xmlns="http://www.w3.org/2000/svg" width="16" height="16" viewBox="0 0 14 14" aria-hidden="true" class="$w-[1em] $h-[1em] $fill-current $text-lg size-3.5"><path d="M13.437 3.93a.68.68 0 0 0-.624-.085l-2.668.946v-.662a1.78 1.78 0 0 0-1.778-1.777H2.051A1.78 1.78 0 0 0 .273 4.129V9.87a1.78 1.78 0 0 0 1.778 1.777h6.316a1.78 1.78 0 0 0 1.777-1.777v-.645l2.67.949q.11.04.229.038a.69.69 0 0 0 .684-.684V4.49a.68.68 0 0 0-.29-.56M8.777 9.87a.41.41 0 0 1-.41.41H2.051a.41.41 0 0 1-.41-.41V4.13a.41.41 0 0 1 .41-.41h6.316a.41.41 0 0 1 .41.41zm3.582-1.31-2.176-.774-.038-.01V6.24q.018-.006.038-.011l2.176-.774z"></path></svg>