<svg xmlns="http://www.w3.org/2000/svg" viewBox="0 0 24 24" width="16" height="16" aria-hidden="true" class="$w-[1em] $h-[1em] $fill-current $text-lg size-[12px] text-surface-foreground-0"><path d="M11.578 19.688H3.281a.7.7 0 0 1-.703-.704V7.687h18.375V12a1.172 1.172 0 0 0 2.344 0V3.703A3.053 3.053 0 0 0 20.25.656H3.281A3.053 3.053 0 0 0 .234 3.703v15.281a3.053 3.053 0 0 0 3.047 3.047h8.297a1.172 1.172 0 0 0 0-2.343M3.281 3H20.25c.39 0 .703.314.703.703v1.64H2.578v-1.64c0-.389.314-.703.703-.703"></path><path d="m22.875 17.48-7.106-7.107a1.17 1.17 0 0 0-.83-.342h-3.314c-.647 0-1.172.525-1.172 1.172v3.314c0 .31.122.61.342.83l7.107 7.106c.576.577 1.34.89 2.156.89.815 0 1.58-.318 2.156-.89l.661-.66c.577-.577.89-1.341.89-2.157s-.318-1.58-.89-2.156m-1.66 2.653-.66.66a.703.703 0 0 1-.994 0l-6.764-6.759v-1.659h1.66l6.763 6.764c.132.131.207.31.207.497a.74.74 0 0 1-.211.497"></path></svg>